# xmcd CD database file
#
# Track frame offsets:
#	182
#	21345
#	43525
#	64475
#	82410
#	105720
#	125930
#	148702
#	168922
#	186712
#
# Disc length: 2741 seconds
#
# Revision: 2
# Processed by: cddbd v1.4b41PL1 Copyright (c) Steve Scherf et al.
# Submitted via: Feurio! 1.60 - http://www.feurio.com
#
DISCID=7e0ab30a,a00ab30a
DTITLE=By All Means - By All Means
DYEAR=1900
DGENRE=
TTITLE0=I Surrender To Your Love
TTITLE1=I'm The One Who Loves You
TTITLE2=You Decided To Go
TTITLE3=I Believe In You
TTITLE4=I Want To thank You
TTITLE5=Let's Geet Started Now
TTITLE6=Slow Jam (Can I Have This Dance With You)
TTITLE7=Somebody Save Me
TTITLE8=Does It Feel Good To You
TTITLE9=We're Into This Groove
EXTD=
EXTT0=
EXTT1=
EXTT2=
EXTT3=
EXTT4=
EXTT5=
EXTT6=
EXTT7=
EXTT8=
EXTT9=
PLAYORDER=
